<svg width="32" height="23" viewBox="0 0 32 23" fill="none" xmlns="http://www.w3.org/2000/svg">
<path fill-rule="evenodd" clip-rule="evenodd" d="M22.1621 12.9689L29.4921 22.0822C29.0932 22.2466 28.6621 22.3333 28.2221 22.3333C22.841 22.3333 9.15878 22.3333 3.77767 22.3333C3.33767 22.3333 2.90656 22.2466 2.50767 22.0822L9.83767 12.9689C10.8521 13.9789 12.2321 14.5555 13.681 14.5555H18.3188C19.7677 14.5555 21.1466 13.9789 22.1621 12.9689ZM0.851008 1.84886L8.391 11.2222L0.851008 20.5955C0.586564 20.11 0.444336 19.5622 0.444336 19C0.444336 15.1522 0.444336 7.2922 0.444336 3.44442C0.444336 2.8822 0.586564 2.33441 0.851008 1.84886ZM31.1488 1.84886C31.4132 2.33441 31.5554 2.8822 31.5554 3.44442V19C31.5554 19.5622 31.4132 20.11 31.1488 20.5955L23.6088 11.2222L31.1488 1.84886ZM2.50767 0.362193C2.90656 0.197748 3.33767 0.111084 3.77767 0.111084H28.2221C28.6621 0.111084 29.0932 0.197748 29.4921 0.362193L20.831 11.13C20.2188 11.8911 19.2955 12.3333 18.3188 12.3333C16.9199 12.3333 15.0799 12.3333 13.681 12.3333C12.7043 12.3333 11.781 11.8911 11.1688 11.13L2.50767 0.362193Z" fill="white"/>
</svg>
