<svg width="32" height="30" viewBox="0 0 32 30" fill="none" xmlns="http://www.w3.org/2000/svg">
<path d="M1.4546 29.3079H5.49911C6.05709 29.3079 6.50937 28.8555 6.50937 28.2976V10.6191C6.50937 10.0611 6.05709 9.60886 5.49911 9.60886H1.4546C0.896564 9.60886 0.444336 10.0611 0.444336 10.6191V28.2976C0.444336 28.8555 0.896564 29.3079 1.4546 29.3079Z" fill="white"/>
<path d="M1.4546 6.50093H5.49911C6.05709 6.50093 6.50937 6.04865 6.50937 5.49067V1.89912C6.50937 1.34114 6.05709 0.888855 5.49911 0.888855H1.4546C0.896564 0.888855 0.444336 1.34114 0.444336 1.89912V5.49067C0.444336 6.04865 0.896564 6.50093 1.4546 6.50093Z" fill="white"/>
<path d="M30.0338 11.6594C29.4655 10.9113 28.6274 10.2961 27.5193 9.81385C26.4112 9.33196 25.1881 9.09085 23.8499 9.09085C21.1333 9.09085 18.8313 10.1276 16.9441 12.2016C16.5686 12.6142 16.2956 12.524 16.2956 11.966V10.6192C16.2956 10.0612 15.8432 9.60893 15.2853 9.60893H11.6724C11.1143 9.60893 10.6621 10.0612 10.6621 10.6192V28.2976C10.6621 28.8556 11.1144 29.308 11.6724 29.308H15.7169C16.2749 29.308 16.7271 28.8556 16.7271 28.2976V22.1495C16.7271 19.5882 16.8818 17.8326 17.1911 16.883C17.5004 15.9333 18.0725 15.1707 18.9071 14.5951C19.7417 14.0195 20.6841 13.7316 21.7347 13.7316C22.5548 13.7316 23.2564 13.9331 23.8393 14.3361C24.4221 14.7391 24.843 15.3036 25.102 16.0305C25.3611 16.7572 25.4906 18.358 25.4906 20.833V28.2976C25.4906 28.8556 25.9428 29.3079 26.5008 29.3079H30.5453C31.1033 29.3079 31.5555 28.8556 31.5555 28.2976V18.286C31.5555 16.5162 31.444 15.1563 31.2211 14.2066C30.9983 13.257 30.6025 12.4079 30.0338 11.6594Z" fill="white"/>
</svg>
