<svg width="32" height="27" viewBox="0 0 32 27" fill="none" xmlns="http://www.w3.org/2000/svg">
<path d="M0.565215 12.9464L7.93867 15.6133L10.7926 24.5079C10.9753 25.0776 11.6941 25.2882 12.1712 24.9101L16.2813 21.6631C16.7121 21.3229 17.3258 21.306 17.776 21.6227L25.1891 26.8384C25.6995 27.1979 26.4226 26.9269 26.5506 26.3292L31.9811 1.01503C32.1209 0.36215 31.4589 -0.182502 30.8174 0.0579346L0.556575 11.3707C-0.190199 11.6498 -0.183693 12.6744 0.565215 12.9464ZM10.3327 14.1937L24.7432 5.59262C25.0022 5.4385 25.2686 5.77786 25.0462 5.97778L13.1534 16.6909C12.7354 17.068 12.4657 17.5727 12.3893 18.1204L11.9842 21.0299C11.9306 21.4183 11.3675 21.4569 11.2569 21.0809L9.69877 15.7755C9.52032 15.1704 9.78037 14.524 10.3327 14.1937Z" fill="white"/>
</svg>
